<?xml version="1.0" encoding="UTF-8"?>
<svg width="418px" height="110px" viewBox="0 0 418 110" version="1.1" xmlns="http://www.w3.org/2000/svg" xmlns:xlink="http://www.w3.org/1999/xlink">
    <!-- Generator: Sketch 49.1 (51147) - http://www.bohemiancoding.com/sketch -->
    <title>Artboard</title>
    <desc>Created with Sketch.</desc>
    <defs></defs>
    <g id="Artboard" stroke="none" stroke-width="1" fill="none" fill-rule="evenodd">
        <g id="noun_1179207_cc" transform="translate(1.000000, 1.000000)" fill="#000000" fill-rule="nonzero">
            <g id="Group" transform="translate(43.000000, 54.000000) scale(-1, 1) rotate(-180.000000) translate(-43.000000, -54.000000) ">
                <g transform="translate(-0.000000, 0.000000)" id="Shape">
                    <g transform="translate(-0.000000, 0.000000)">
                        <path d="M68.9962344,1.81482457 C68.4924518,2.31845307 68.2794825,2.89549681 68.3455764,3.58119509 C68.4527954,4.70151155 69.9993935,4.82925405 72.3464624,4.89826437 C73.5699345,4.93350369 74.833063,4.97167961 75.8288783,5.29323833 C78.0496344,6.01123931 79.6241387,7.78201474 80.1514214,10.1518585 C80.7712356,12.9298909 79.7783579,15.9384472 77.5649455,18.0043518 C76.7938497,18.728226 71.4314286,21.9217887 70.3137068,21.8204757 C70.0507998,21.7984511 69.8260805,21.6251912 69.7364865,21.3770477 C69.2209538,19.9498555 61.9888089,15.007542 56.6381379,13.1516049 C46.0425463,8.65271941 28.9991243,4.13034103 25.8927095,7.72034595 C25.5945525,8.06539754 25.4799896,8.41044914 25.5328648,8.8068914 C25.681209,9.91839803 27.1176504,11.4057907 29.7863765,13.2235518 C29.9494082,13.2543862 30.0904086,13.3483577 30.1858776,13.4922516 C31.05538,14.0692953 31.9381012,14.616973 32.7238846,15.1000452 C33.5625431,15.6168885 34.2866389,16.0617848 34.7992341,16.4273926 C39.6461224,19.889655 39.7665602,20.2009356 39.8840606,20.5019381 C40.0177172,20.848458 39.8458729,21.2375587 39.499247,21.3726428 C39.1775899,21.4974486 38.8177451,21.3579597 38.6605884,21.0584256 C38.4916817,20.8543312 37.6500857,20.1172423 34.0149194,17.5227479 C33.5419806,17.1850378 32.8355099,16.7504197 32.0174139,16.2467912 C31.2330992,15.7637189 30.3533156,15.2175096 29.4764694,14.6375292 C26.6535241,15.3672767 24.1551735,16.4875931 22.0651365,17.9911371 C19.177566,20.0394221 17.0214351,22.7675322 15.6510876,26.1005838 C14.0765833,29.8976197 13.5698631,34.3656708 14.1191771,39.3784629 C14.621491,39.2844914 15.1428987,39.2624668 15.6481501,39.3344138 C18.0348754,39.6868069 19.0277531,41.9406545 19.9868495,44.121087 C20.6624764,45.6510604 21.3601346,47.2338929 22.4925439,47.9034398 C22.8127323,48.0928511 22.9199514,48.5054447 22.7304821,48.8255351 C22.5410128,49.1441572 22.1282929,49.2513435 21.8081045,49.0619322 C20.3011629,48.1721396 19.5153795,46.3896177 18.7560336,44.6643597 C17.905625,42.7335391 17.1022166,40.9099047 15.4572121,40.6661661 C14.9504919,40.5971558 14.4217405,40.651483 13.9341141,40.8115283 C13.8210201,40.9025631 13.6873634,40.9686369 13.5316755,40.9686369 C13.5302068,40.9686369 13.528738,40.9671686 13.5258005,40.9671686 C12.7253295,41.3445229 11.4666073,42.3635263 12.2861721,44.9125032 C13.1365807,47.5833494 14.3145214,49.5420678 18.156782,52.2922025 C18.437314,52.5197897 20.7770392,53.8618201 21.0737275,53.9969042 C21.1133839,54.0145238 21.1515715,54.0365484 21.1882903,54.0615096 C25.6591776,57.1713789 25.155395,61.3443007 23.7013285,65.4305926 C23.3884839,65.2852305 23.0815143,65.1486781 22.7760135,65.0135941 C21.8213233,64.5921907 20.9209771,64.1928118 19.8443804,63.4983037 C19.7312863,63.4263568 19.6035047,63.3911174 19.4786606,63.3911174 C19.2583475,63.3911174 19.0424407,63.499772 18.9131903,63.7009297 C18.7105023,64.0122103 18.801565,64.4292088 19.1144096,64.6303666 C20.2791316,65.3821386 21.2705406,65.8211617 22.229637,66.2455017 C22.5571691,66.3908639 22.88617,66.536226 23.2239834,66.6948029 C23.1138269,66.9737808 23.0007328,67.2498221 22.88617,67.5258634 C22.3045434,67.393716 21.6597604,67.2630369 20.992946,67.1279528 C19.8458491,66.897429 18.6620334,66.6580953 17.6353743,66.3776491 C17.5766241,66.3614978 17.5164052,66.3541563 17.4576551,66.3541563 C17.1609667,66.3541563 16.890716,66.5509091 16.8084658,66.8489749 C16.711528,67.2087096 16.9215598,67.5787224 17.2814046,67.6770988 C18.3521263,67.9692914 19.5579733,68.21303 20.7256328,68.449427 C21.2940406,68.5624865 21.8477609,68.6740776 22.3559498,68.7871371 C22.3530123,68.7959469 22.348606,68.8062251 22.3441998,68.8165032 C21.5936665,70.5872786 20.8842582,72.2596776 20.5170697,73.8175489 C20.4686009,74.0231115 20.4304132,74.2081179 20.3863506,74.4034025 C20.9988211,74.0084285 21.7596357,73.7852462 22.5982942,73.7852462 C22.8391699,73.7852462 23.0873893,73.8028658 23.3385463,73.8410418 C25.0628635,74.0921219 27.2292757,75.331371 27.6640269,77.9978123 C27.7227771,78.3648885 27.4745576,78.70994 27.1073691,78.7701405 C26.7401806,78.8318093 26.3935547,78.5807292 26.3348045,78.2136531 C26.0175536,76.2666811 24.4180805,75.3578005 23.1446707,75.1727941 C21.9211986,74.9951292 20.868102,75.4150644 20.4671321,76.2446565 C20.3701943,76.4428776 20.1866001,76.5618103 19.9853808,76.5999862 C19.7371613,78.3399273 19.7239426,79.6614015 19.7180675,80.9432314 C19.7121925,81.9548934 19.7077863,83.0003263 19.5873484,84.2307656 C19.4125667,86.0044776 19.082097,88.0233966 18.7633774,89.9762418 C18.1920321,93.4708069 17.6001242,97.085773 17.9629065,98.9872275 C18.0187191,99.2852934 18.1141881,99.2999764 18.1890946,99.3117229 C19.7841615,99.5686762 24.9673945,94.8554182 25.4476771,93.977372 C25.5402086,93.7776826 25.7238028,93.6381936 25.9397097,93.6000177 C26.1541478,93.5633101 26.3759296,93.6323204 26.5301488,93.7864924 C27.8167773,95.0653857 33.5390431,96.6482182 36.6131453,97.4998349 C37.6471481,97.784686 38.513713,98.025488 39.0600895,98.2016845 C39.3215278,98.2868462 39.505122,98.5217749 39.5242158,98.7963479 L39.5344971,98.9519882 C39.9663108,105.343518 40.7462192,107.287554 41.3572209,107.744197 C43.4634142,107.683996 51.2434043,97.0020796 54.2029437,92.9378123 L54.6053823,92.3857297 C62.3515912,81.7610771 72.0732742,65.9635872 75.6643778,56.3271037 C77.1155068,52.4287548 78.2523224,44.1460482 77.914509,39.9202673 C77.6780396,37.017429 75.9625349,28.3926074 75.0989075,27.6232157 C74.9065007,27.4866634 74.8022192,27.2297101 74.8198442,26.9947813 C74.821313,26.959542 74.7919379,26.8508875 74.7728441,26.7789405 C74.7008751,26.5131774 74.5936561,26.1137985 74.8198442,25.6835853 C74.8756569,25.576399 74.9608446,25.4853641 75.0636574,25.422227 C81.1472366,21.7044796 86.9825965,17.3744491 85.731218,8.9963027 C84.996841,4.13034103 81.1898305,0.999915479 75.286908,0.409657002 C72.5447442,0.138020639 70.1345188,0.678356757 68.9962344,1.81482457 Z M3.08295924,13.7154339 C1.4320797,14.2102526 0.88717195,14.7447155 0.721202743,15.1059184 C0.638952516,15.2865199 0.558171044,15.5919273 0.812265494,16.168971 C1.3042981,17.3025022 4.18452478,18.8912079 6.72546927,20.2919705 C7.95481641,20.9703273 9.22675741,21.6707086 10.2607603,22.3358506 C10.7469178,22.6515361 11.426951,23.0421052 12.0849528,23.4179912 C13.9341141,24.4781071 14.3086464,24.7203774 14.4378968,25.1094781 C14.4893031,25.2621818 14.4731468,25.4148855 14.4217405,25.5543744 C15.7847442,22.2492206 17.8850625,19.5064275 20.6492576,17.3773857 C15.7113065,14.838687 6.66818786,12.6391666 3.08295924,13.7154339 Z M41.2925957,38.5826418 C43.3664764,39.5531912 43.5706332,41.3254349 43.7659775,43.041883 C44.0024469,45.1004462 44.2462601,47.2324246 47.6229256,48.8167253 C47.960739,48.9738339 48.1046769,49.3746811 47.9460515,49.7109229 C47.7888948,50.0471646 47.387925,50.1925268 47.0515803,50.0339499 C42.9934129,48.131027 42.6805682,45.3941071 42.4294113,43.1945867 C42.228192,41.4443676 42.0504728,40.4238958 40.7227191,39.8013346 C39.3611841,39.167027 37.4855852,38.7324088 36.2870819,40.2770654 C33.5654807,43.7951233 36.9054274,47.8138732 37.9952429,48.9650241 C39.8106228,50.8929081 41.577534,52.0939813 42.8450687,52.2584314 C43.213726,52.3068855 43.4736954,52.6445956 43.4252265,53.01314 C43.3782264,53.3831528 43.040413,53.6445111 42.6717557,53.5931204 C40.6287189,53.3273572 38.4667129,51.4317759 37.0155839,49.8885877 C34.3894517,47.1178968 32.5388216,42.9214821 35.2222352,39.4533464 C36.0300499,38.4123184 37.152178,37.8837287 38.4681817,37.8837287 C39.337684,37.8837287 40.2909054,38.1157209 41.2925957,38.5826418 Z M57.9247665,71.2480157 C58.0687044,71.5901307 57.9071414,71.9851047 57.5649217,72.1289985 C56.5647002,72.5474654 54.4790695,72.5327823 52.0629691,72.4725818 C51.5900303,72.4608354 51.1670291,72.4505572 50.839497,72.4505572 C50.4679022,72.4505572 50.1668076,72.1495548 50.1668076,71.7780737 C50.1668076,71.4065926 50.4679022,71.1041219 50.839497,71.1041219 C51.1758416,71.1041219 51.6105928,71.1144 52.0952817,71.1261464 C53.6389422,71.1643224 56.2283555,71.2274595 57.0449828,70.8868128 C57.1301705,70.8515735 57.2182958,70.8339538 57.3034835,70.8339538 C57.5663905,70.8339538 57.8175474,70.9895941 57.9247665,71.2480157 Z M32.5197278,71.7589857 C33.0793231,72.0085975 33.599262,72.6047292 33.885669,73.3653111 C34.3542016,73.0026398 34.8991093,72.7706477 35.4528296,72.7236619 C35.5233298,72.7177887 35.5894237,72.7163204 35.6569864,72.7163204 C36.4662699,72.7163204 37.1903656,73.1303823 37.6677107,73.8733445 C37.8674612,74.1875617 37.7778673,74.6030919 37.4635539,74.8042496 C37.152178,75.0039391 36.7335831,74.9129042 36.5338326,74.6001553 C36.2856131,74.2125229 35.9595497,74.0333897 35.5673924,74.0671607 C34.9681408,74.117083 34.333639,74.632458 34.0384195,75.2961317 C33.9987631,75.5090359 33.9370754,75.7307499 33.8342626,75.9774251 C33.7035435,76.2916423 33.3583863,76.459029 33.0279167,76.3650575 C32.7003845,76.2725543 32.4932902,75.948059 32.5476341,75.6118172 C32.584353,75.3798251 32.6577907,75.1639843 32.7385721,74.9525484 C32.7385721,74.9496118 32.7371034,74.9481435 32.7385721,74.9466752 C32.9001351,74.01577 32.4022275,73.1803047 31.9733513,72.9908934 C31.867601,72.9439076 31.8103196,72.9380344 31.706038,73.0716501 C31.4769124,73.3653111 31.0539112,73.4167017 30.7601604,73.1876462 C30.4678784,72.960059 30.4150032,72.5357189 30.6426601,72.2435263 C30.9643172,71.832401 31.3990684,71.6150919 31.8631947,71.6150919 C32.0791016,71.6150919 32.3008834,71.6620776 32.5197278,71.7589857 Z M50.1124637,73.6971479 C50.8923721,73.9614428 51.8088746,74.01577 52.7782523,74.0715656 C53.7843488,74.1302978 54.8242267,74.1904983 55.7671668,74.5047155 C56.1196677,74.6221799 56.3106058,75.0039391 56.1916367,75.3563322 C56.0756051,75.7087253 55.6937291,75.9010732 55.3397593,75.7821405 C54.5671947,75.5237189 53.6595047,75.47086 52.7004083,75.4150644 C51.6840305,75.3563322 50.6324026,75.2961317 49.68065,74.9731047 C49.328149,74.854172 49.1386798,74.4709445 49.2591176,74.1200197 C49.3531179,73.8381052 49.6160248,73.6619086 49.8965569,73.6619086 C49.9685258,73.6619086 50.0404948,73.673655 50.1124637,73.6971479 Z M42.5380991,78.2635754 C44.7941053,78.7716088 45.9823273,80.6495705 45.7179516,83.2895823 C45.6812328,83.6595951 45.3537006,83.9341681 44.9806371,83.8930555 C44.6105111,83.8548796 44.3402603,83.5259794 44.3769792,83.1559666 C44.6428237,80.5203597 43.1520383,79.7818025 42.2414108,79.5762398 C40.7006878,79.2282516 38.9381829,79.9198231 38.5430881,81.0254565 C38.418244,81.374913 38.0334305,81.5569828 37.6823982,81.4321769 C37.331366,81.307371 37.1492405,80.9226752 37.2740846,80.5717504 C37.7954923,79.1151921 39.5491846,78.1387695 41.404221,78.1387695 C41.7816908,78.1387695 42.1620981,78.1784138 42.5380991,78.2635754 Z"></path>
                    </g>
                </g>
            </g>
        </g>
        <path d="M119.168,69.312 L119.168,84 L112.448,84 L112.448,47.28 L135.152,47.28 L135.152,52.56 L119.168,52.56 L119.168,64.128 L134.096,64.128 L134.096,69.312 L119.168,69.312 Z M149.072,80.016 C151.904,80.016 154.88,77.904 154.88,72.912 L154.88,72.192 C150.368,72.432 147.968,72.816 146.624,73.776 C145.712,74.4 145.328,75.36 145.328,76.56 C145.328,78.672 146.72,80.016 149.072,80.016 Z M146.24,65.808 L140.048,65.808 C140.24,60.912 144.128,57.84 150.608,57.84 C158.192,57.84 161.12,60.96 161.12,67.776 L161.12,77.184 C161.12,78.816 161.6,79.44 163.28,79.44 L163.28,84.096 L161.456,84.096 C157.664,84.096 156.032,83.136 155.36,80.208 L155.216,80.208 C153.728,82.848 151.04,84.336 147.344,84.336 C142.112,84.336 138.896,81.552 138.896,76.848 C138.896,73.92 140.144,71.76 142.736,70.416 C145.424,69.024 149.312,68.688 154.832,68.448 L154.832,67.152 C154.832,63.696 153.488,62.112 150.56,62.112 C147.584,62.112 146.336,63.792 146.24,65.808 Z M170.48,51.168 L176.096,51.168 L176.096,58.416 L182.048,58.416 L182.048,63.024 L176.192,63.024 L176.192,75.648 C176.192,78.288 177.2,79.392 179.792,79.392 C180.896,79.392 182.192,79.2 182.192,79.2 L182.192,84.048 C181.568,84.144 179.696,84.384 177.536,84.384 C172.496,84.384 169.808,82.128 169.808,76.8 L169.808,63.024 L165.68,63.024 L165.68,58.512 L166.544,58.512 C169.856,58.512 170.48,57.792 170.48,53.04 L170.48,51.168 Z M214.496,51.792 C208.64,51.792 204.896,56.928 204.896,65.808 C204.896,74.592 208.448,79.68 214.448,79.68 C219.536,79.68 222.08,76.32 222.512,71.904 L229.328,71.904 C228.848,79.44 223.28,84.72 214.544,84.72 C203.792,84.72 197.696,78.048 197.696,66 C197.696,53.952 204.272,46.704 214.496,46.704 C222.512,46.704 228.704,50.928 229.328,59.184 L222.416,59.184 C221.984,55.104 219.2,51.792 214.496,51.792 Z M243.68,80.016 C246.512,80.016 249.488,77.904 249.488,72.912 L249.488,72.192 C244.976,72.432 242.576,72.816 241.232,73.776 C240.32,74.4 239.936,75.36 239.936,76.56 C239.936,78.672 241.328,80.016 243.68,80.016 Z M240.848,65.808 L234.656,65.808 C234.848,60.912 238.736,57.84 245.216,57.84 C252.8,57.84 255.728,60.96 255.728,67.776 L255.728,77.184 C255.728,78.816 256.208,79.44 257.888,79.44 L257.888,84.096 L256.064,84.096 C252.272,84.096 250.64,83.136 249.968,80.208 L249.824,80.208 C248.336,82.848 245.648,84.336 241.952,84.336 C236.72,84.336 233.504,81.552 233.504,76.848 C233.504,73.92 234.752,71.76 237.344,70.416 C240.032,69.024 243.92,68.688 249.44,68.448 L249.44,67.152 C249.44,63.696 248.096,62.112 245.168,62.112 C242.192,62.112 240.944,63.792 240.848,65.808 Z M265.088,51.168 L270.704,51.168 L270.704,58.416 L276.656,58.416 L276.656,63.024 L270.8,63.024 L270.8,75.648 C270.8,78.288 271.808,79.392 274.4,79.392 C275.504,79.392 276.8,79.2 276.8,79.2 L276.8,84.048 C276.176,84.144 274.304,84.384 272.144,84.384 C267.104,84.384 264.416,82.128 264.416,76.8 L264.416,63.024 L260.288,63.024 L260.288,58.512 L261.152,58.512 C264.464,58.512 265.088,57.792 265.088,53.04 L265.088,51.168 Z M305.36,70.896 L300.464,70.896 L300.464,84 L293.744,84 L293.744,47.28 L305.936,47.28 C313.568,47.28 319.472,50.64 319.472,58.944 C319.472,67.44 313.328,70.896 305.36,70.896 Z M300.464,65.904 L305.696,65.904 C310.208,65.904 312.8,63.6 312.8,58.992 C312.8,54.144 310.208,52.224 305.792,52.224 L300.464,52.224 L300.464,65.904 Z M323.648,84 L323.648,58.416 L329.744,58.416 L329.744,63.6 L329.84,63.6 C331.184,60.144 334.64,57.984 338.192,57.984 L338.624,57.984 L338.624,64.032 L337.424,64.032 C332.864,64.032 330.08,65.952 330.08,70.896 L330.08,84 L323.648,84 Z M358.784,68.736 L358.784,68.448 C358.544,64.608 357.056,62.016 353.504,62.016 C350.192,62.016 348.368,64.56 347.936,68.736 L358.784,68.736 Z M365.072,76.8 C364.256,81.696 360.176,84.624 353.6,84.624 C345.536,84.624 341.36,79.248 341.36,71.232 C341.36,63.456 345.824,57.792 353.552,57.792 C361.952,57.792 365.36,63.552 365.36,70.704 L365.36,72.768 L347.888,72.768 C348.176,77.616 350.048,80.16 353.84,80.16 C357.296,80.16 358.304,78.336 358.736,76.8 L365.072,76.8 Z M389.888,65.28 L384.032,65.28 C383.888,63.456 382.448,62.112 379.856,62.112 C377.312,62.112 375.824,63.456 375.824,65.28 C375.824,66.96 376.784,67.824 379.088,68.16 L383.264,68.736 C388.208,69.408 390.608,71.664 390.608,76.224 C390.608,81.744 386.144,84.672 379.904,84.672 C373.184,84.672 369.44,81.792 369.104,76.656 L375.104,76.656 C375.296,78.48 376.4,80.352 379.952,80.352 C382.784,80.352 384.608,79.104 384.608,76.992 C384.608,75.264 383.936,74.304 381.2,73.968 L377.168,73.44 C372.464,72.816 369.824,70.56 369.824,66 C369.824,61.536 373.232,57.792 379.952,57.792 C386.336,57.792 389.504,60.768 389.888,65.28 Z M415.04,65.28 L409.184,65.28 C409.04,63.456 407.6,62.112 405.008,62.112 C402.464,62.112 400.976,63.456 400.976,65.28 C400.976,66.96 401.936,67.824 404.24,68.16 L408.416,68.736 C413.36,69.408 415.76,71.664 415.76,76.224 C415.76,81.744 411.296,84.672 405.056,84.672 C398.336,84.672 394.592,81.792 394.256,76.656 L400.256,76.656 C400.448,78.48 401.552,80.352 405.104,80.352 C407.936,80.352 409.76,79.104 409.76,76.992 C409.76,75.264 409.088,74.304 406.352,73.968 L402.32,73.44 C397.616,72.816 394.976,70.56 394.976,66 C394.976,61.536 398.384,57.792 405.104,57.792 C411.488,57.792 414.656,60.768 415.04,65.28 Z" id="Fat-Cat-Press" fill="#000000"></path>
    </g>
</svg>